# xmcd
#
# Track frame offsets:
#	150
#	13984
#	28012
#	38815
#	48432
#	60820
#	68165
#	80327
#	96537
#	107075
#	119635
#	129320
#	140347
#	152920
#	164245
#	175677
#	185255
#	197832
#	208637
#	219107
#	228230
#	240132
#	251182
#	264177
#
# Disc length: 3685 seconds
#
# Revision: 1
# Processed by: cddbd v1.5.2PL0 Copyright (c) Steve Scherf et al.
# Submitted via: EZCDAudioConverter 6.0.5.1
#
DISCID=4b0e6318
DTITLE=Artistes Folkloristes Variés - Radio Folklore, Les Étoiles Du Folklore
DYEAR=1999
DGENRE=Folklore
TTITLE0=Andrée Lejeune - La Veillée Chez L'père Jos
TTITLE1=Louise Mailhot - À La Claire Fontaine
TTITLE2=Oscar Thiffault - Y Mouillera Pu Pentoute
TTITLE3=Rodger Brulotte - En Sautant La P'tite Barrière
TTITLE4=Denis Coté - Dondaine La Ridaine
TTITLE5=Le Virginien - Ti-Loup De Gaspé
TTITLE6=Pierre Faucher - C'est À Boire Qu'il Nous Faut
TTITLE7=Paolo Noël - La Bouteille De Rhum
TTITLE8=Monsieur Pointu - Black Jack and Whisky
TTITLE9=Carl Gauthier - La Poule À Colin
TTITLE10=Carmen Dessureault - J'aime Ça Quand Sa Grouille
TTITLE11=Bo-Boule - Bonhomme, Bonhomme
TTITLE12=Joel Denis - Le Cavalier De Ma Soeur
TTITLE13=Roger Gendron - La Gigue À Mémé
TTITLE14=Denise Émond - C'est Y Bête Un Homme Comme Ça
TTITLE15=Francine Dessureault - La Vie D'un Homme
TTITLE16=Oscar Morin - L'diable Est Dans Bricole
TTITLE17=La Famille Gaudet - Nicolas
TTITLE18=Robin Bariault - Reel Rubber Dolly
TTITLE19=Carmen Dessureault - La Petite Jument
TTITLE20=Monique Vermont - Lève Ton Pied Légère Bergère
TTITLE21=Marc Vézina - Reel De La Bouteille
TTITLE22=Roger Durocher - Bowing The Springs
TTITLE23=Denis Coté - Cecilia Polka
EXTD=
EXTT0=
EXTT1=
EXTT2=
EXTT3=
EXTT4=
EXTT5=
EXTT6=
EXTT7=
EXTT8=
EXTT9=
EXTT10=
EXTT11=
EXTT12=
EXTT13=
EXTT14=
EXTT15=
EXTT16=
EXTT17=
EXTT18=
EXTT19=
EXTT20=
EXTT21=
EXTT22=
EXTT23=
PLAYORDER=
